<?xml version="1.0" encoding="utf-8" ?>
<svg baseProfile="full" height="50cm" version="1.1" width="50cm" xmlns="http://www.w3.org/2000/svg" xmlns:ev="http://www.w3.org/2001/xml-events" xmlns:xlink="http://www.w3.org/1999/xlink"><defs /><rect fill="white" height="100%" width="100%" x="0" y="0" /><g fill="none" stroke="green" stroke-width="5"><line stroke="black" stroke-linecap="round" stroke-width="4" x1="10cm" x2="40cm" y1="34.0cm" y2="34.0cm" /><line stroke="black" stroke-linecap="round" stroke-width="4" x1="10.0cm" x2="10.0cm" y1="34.0cm" y2="35.0cm" /><line stroke="black" stroke-linecap="round" stroke-width="4" x1="15.0cm" x2="15.0cm" y1="34.0cm" y2="35.0cm" /><line stroke="black" stroke-linecap="round" stroke-width="4" x1="20.0cm" x2="20.0cm" y1="34.0cm" y2="35.0cm" /><line stroke="black" stroke-linecap="round" stroke-width="4" x1="25.0cm" x2="25.0cm" y1="34.0cm" y2="35.0cm" /><line stroke="black" stroke-linecap="round" stroke-width="4" x1="30.0cm" x2="30.0cm" y1="34.0cm" y2="35.0cm" /><line stroke="black" stroke-linecap="round" stroke-width="4" x1="35.0cm" x2="35.0cm" y1="34.0cm" y2="35.0cm" /><line stroke="black" stroke-linecap="round" stroke-width="4" x1="40.0cm" x2="40.0cm" y1="34.0cm" y2="35.0cm" /><line stroke="lime" x1="5cm" x2="6cm" y1="431.0mm" y2="431.0mm" /><line stroke="lime" x1="5cm" x2="6cm" y1="432.0mm" y2="432.0mm" /><line stroke="lime" x1="5cm" x2="6cm" y1="433.0mm" y2="433.0mm" /><line stroke="lime" x1="5cm" x2="6cm" y1="434.0mm" y2="434.0mm" /><line stroke="lime" x1="5cm" x2="6cm" y1="435.0mm" y2="435.0mm" /><line stroke="lime" x1="5cm" x2="6cm" y1="436.0mm" y2="436.0mm" /><line stroke="lime" x1="5cm" x2="6cm" y1="437.0mm" y2="437.0mm" /><line stroke="lime" x1="5cm" x2="6cm" y1="438.0mm" y2="438.0mm" /><line stroke="lime" x1="5cm" x2="6cm" y1="439.0mm" y2="439.0mm" /><line stroke="blue" x1="13cm" x2="14cm" y1="431.0mm" y2="431.0mm" /><line stroke="blue" x1="13cm" x2="14cm" y1="432.0mm" y2="432.0mm" /><line stroke="blue" x1="13cm" x2="14cm" y1="433.0mm" y2="433.0mm" /><line stroke="blue" x1="13cm" x2="14cm" y1="434.0mm" y2="434.0mm" /><line stroke="blue" x1="13cm" x2="14cm" y1="435.0mm" y2="435.0mm" /><line stroke="blue" x1="13cm" x2="14cm" y1="436.0mm" y2="436.0mm" /><line stroke="blue" x1="13cm" x2="14cm" y1="437.0mm" y2="437.0mm" /><line stroke="blue" x1="13cm" x2="14cm" y1="438.0mm" y2="438.0mm" /><line stroke="blue" x1="13cm" x2="14cm" y1="439.0mm" y2="439.0mm" /><line stroke="gold" x1="21cm" x2="22cm" y1="431.0mm" y2="431.0mm" /><line stroke="gold" x1="21cm" x2="22cm" y1="432.0mm" y2="432.0mm" /><line stroke="gold" x1="21cm" x2="22cm" y1="433.0mm" y2="433.0mm" /><line stroke="gold" x1="21cm" x2="22cm" y1="434.0mm" y2="434.0mm" /><line stroke="gold" x1="21cm" x2="22cm" y1="435.0mm" y2="435.0mm" /><line stroke="gold" x1="21cm" x2="22cm" y1="436.0mm" y2="436.0mm" /><line stroke="gold" x1="21cm" x2="22cm" y1="437.0mm" y2="437.0mm" /><line stroke="gold" x1="21cm" x2="22cm" y1="438.0mm" y2="438.0mm" /><line stroke="gold" x1="21cm" x2="22cm" y1="439.0mm" y2="439.0mm" /><line stroke="maroon" x1="29cm" x2="30cm" y1="431.0mm" y2="431.0mm" /><line stroke="maroon" x1="29cm" x2="30cm" y1="432.0mm" y2="432.0mm" /><line stroke="maroon" x1="29cm" x2="30cm" y1="433.0mm" y2="433.0mm" /><line stroke="maroon" x1="29cm" x2="30cm" y1="434.0mm" y2="434.0mm" /><line stroke="maroon" x1="29cm" x2="30cm" y1="435.0mm" y2="435.0mm" /><line stroke="maroon" x1="29cm" x2="30cm" y1="436.0mm" y2="436.0mm" /><line stroke="maroon" x1="29cm" x2="30cm" y1="437.0mm" y2="437.0mm" /><line stroke="maroon" x1="29cm" x2="30cm" y1="438.0mm" y2="438.0mm" /><line stroke="maroon" x1="29cm" x2="30cm" y1="439.0mm" y2="439.0mm" /><line stroke="red" x1="37cm" x2="38cm" y1="431.0mm" y2="431.0mm" /><line stroke="red" x1="37cm" x2="38cm" y1="432.0mm" y2="432.0mm" /><line stroke="red" x1="37cm" x2="38cm" y1="433.0mm" y2="433.0mm" /><line stroke="red" x1="37cm" x2="38cm" y1="434.0mm" y2="434.0mm" /><line stroke="red" x1="37cm" x2="38cm" y1="435.0mm" y2="435.0mm" /><line stroke="red" x1="37cm" x2="38cm" y1="436.0mm" y2="436.0mm" /><line stroke="red" x1="37cm" x2="38cm" y1="437.0mm" y2="437.0mm" /><line stroke="red" x1="37cm" x2="38cm" y1="438.0mm" y2="438.0mm" /><line stroke="red" x1="37cm" x2="38cm" y1="439.0mm" y2="439.0mm" /></g><g fill="black" font-family="sans-serif" font-size="20"><text font-size="60" font-weight="bold" x="10cm" y="6.0cm">Assembly metrics</text><text font-size="24" style="font-weight:bold" text-anchor="end" x="9.5cm" y="9.0cm">Sorghum3.0.1Ref</text><text font-size="24" text-anchor="end" x="9.5cm" y="9.8cm">Length: 708,863,705</text><text font-size="24" text-anchor="end" x="9.5cm" y="10.6cm">Contigs: 870</text><text font-size="24" text-anchor="end" x="9.5cm" y="11.4cm">N50: 68,658,214</text><text font-size="24" text-anchor="end" x="9.5cm" y="12.2cm">Largest Contig: 80,884,392</text><text font-size="24" text-anchor="end" x="9.5cm" y="13.0cm">Smallest Contig: 1,005</text><text font-size="24" style="font-weight:bold" text-anchor="end" x="9.5cm" y="16.0cm">Ref+176AccPanGen</text><text font-size="24" text-anchor="end" x="9.5cm" y="16.8cm">Length: 1,044,760,368</text><text font-size="24" text-anchor="end" x="9.5cm" y="17.6cm">Contigs: 379,548</text><text font-size="24" text-anchor="end" x="9.5cm" y="18.4cm">N50: 61,277,060</text><text font-size="24" text-anchor="end" x="9.5cm" y="19.2cm">Largest Contig: 80,884,392</text><text font-size="24" text-anchor="end" x="9.5cm" y="20.0cm">Smallest Contig: 501</text><text font-size="24" style="font-weight:bold" text-anchor="end" x="9.5cm" y="23.0cm">PanGnmContaminRemoved</text><text font-size="24" text-anchor="end" x="9.5cm" y="23.8cm">Length: 972,632,774</text><text font-size="24" text-anchor="end" x="9.5cm" y="24.6cm">Contigs: 315,776</text><text font-size="24" text-anchor="end" x="9.5cm" y="25.4cm">N50: 62,686,529</text><text font-size="24" text-anchor="end" x="9.5cm" y="26.2cm">Largest Contig: 80,884,392</text><text font-size="24" text-anchor="end" x="9.5cm" y="27.0cm">Smallest Contig: 501</text><text font-size="24" style="font-weight:bold" text-anchor="end" x="9.5cm" y="30.0cm">PanGnmContRmDupRm</text><text font-size="24" text-anchor="end" x="9.5cm" y="30.8cm">Length: 883,367,600</text><text font-size="24" text-anchor="end" x="9.5cm" y="31.6cm">Contigs: 210,805</text><text font-size="24" text-anchor="end" x="9.5cm" y="32.4cm">N50: 62,686,529</text><text font-size="24" text-anchor="end" x="9.5cm" y="33.2cm">Largest Contig: 80,884,392</text><text font-size="24" text-anchor="end" x="9.5cm" y="34.0cm">Smallest Contig: 501</text><text font-size="20" x="10.0cm" y="35.5cm">0Mbp</text><text font-size="20" x="15.0cm" y="35.5cm">174Mbp</text><text font-size="20" x="20.0cm" y="35.5cm">348Mbp</text><text font-size="20" x="25.0cm" y="35.5cm">522Mbp</text><text font-size="20" x="30.0cm" y="35.5cm">697Mbp</text><text font-size="20" x="35.0cm" y="35.5cm">871Mbp</text><text font-size="20" x="40.0cm" y="35.5cm">1045Mbp</text><text font-size="24" x="6.1cm" y="439.0mm">Contigs &gt;5kb</text><text font-size="24" x="14.1cm" y="439.0mm">Contigs 2.5-5kb</text><text font-size="24" x="22.1cm" y="439.0mm">Contigs 1-2.5kb</text><text font-size="24" x="30.1cm" y="439.0mm">Contigs 650bp-1kb</text><text font-size="24" x="38.1cm" y="439.0mm">Contigs &lt;650bp</text></g><g fill="white" id="shapes"><rect height="3cm" stroke="black" stroke-width="4" width="20.35482183412991cm" x="10cm" y="9.0cm" /><rect fill="lime" height="30mm" width="20.305854653169614cm" x="10cm" y="9.0cm" /><rect fill="blue" height="30mm" width="0.043854180732093004cm" x="30.305854653169614cm" y="9.0cm" /><rect fill="gold" height="30mm" width="0.005113000228201612cm" x="30.34970883390171cm" y="9.0cm" /><rect fill="maroon" height="30mm" width="0.0cm" x="30.35482183412991cm" y="9.0cm" /><rect fill="red" height="30mm" width="0.0cm" x="30.35482183412991cm" y="9.0cm" /><rect height="3cm" stroke="black" stroke-width="4" width="30.0cm" x="10cm" y="16.0cm" /><rect fill="lime" height="30mm" width="21.076997897760993cm" x="10cm" y="16.0cm" /><rect fill="blue" height="30mm" width="0.8890441276769412cm" x="31.076997897760993cm" y="16.0cm" /><rect fill="gold" height="30mm" width="2.2647757442499006cm" x="31.966042025437936cm" y="16.0cm" /><rect fill="maroon" height="30mm" width="2.697464084893389cm" x="34.23081776968784cm" y="16.0cm" /><rect fill="red" height="30mm" width="3.071718145418778cm" x="36.92828185458123cm" y="16.0cm" /><rect height="3cm" stroke="black" stroke-width="4" width="27.928876433031cm" x="10cm" y="23.0cm" /><rect fill="lime" height="30mm" width="20.760837302358315cm" x="10cm" y="23.0cm" /><rect fill="blue" height="30mm" width="0.5807808839088735cm" x="30.760837302358315cm" y="23.0cm" /><rect fill="gold" height="30mm" width="1.6809948901124472cm" x="31.341618186267187cm" y="23.0cm" /><rect fill="maroon" height="30mm" width="2.25112614532101cm" x="33.022613076379635cm" y="23.0cm" /><rect fill="red" height="30mm" width="2.6551372113303593cm" x="35.273739221700644cm" y="23.0cm" /><rect height="3cm" stroke="black" stroke-width="4" width="25.365652078410385cm" x="10cm" y="30.0cm" /><rect fill="lime" height="30mm" width="20.461837139672205cm" x="10cm" y="30.0cm" /><rect fill="blue" height="30mm" width="0.40043998874199255cm" x="30.461837139672205cm" y="30.0cm" /><rect fill="gold" height="30mm" width="1.2430815618381115cm" x="30.8622771284142cm" y="30.0cm" /><rect fill="maroon" height="30mm" width="1.5789900445381366cm" x="32.10535869025231cm" y="30.0cm" /><rect fill="red" height="30mm" width="1.6813033436199407cm" x="33.68434873479045cm" y="30.0cm" /></g></svg>